<?xml version="1.0" encoding="UTF-8" standalone="no"?>
<!DOCTYPE svg PUBLIC "-//W3C//DTD SVG 1.1//EN" "http://www.w3.org/Graphics/SVG/1.1/DTD/svg11.dtd">
<svg width="100%" height="100%" viewBox="0 0 1024 1024" version="1.1" xmlns="http://www.w3.org/2000/svg" xmlns:xlink="http://www.w3.org/1999/xlink" xml:space="preserve" xmlns:serif="http://www.serif.com/" style="fill-rule:evenodd;clip-rule:evenodd;stroke-linecap:round;stroke-linejoin:round;stroke-miterlimit:1.5;">
    <g transform="matrix(1.00836,0,0,1.21959,39.1362,-37.2073)">
        <path d="M312.045,299.708C312.333,298.936 315.735,273.243 317.896,268.583C327.644,247.556 348.309,214.441 371.21,205.813C396.416,196.317 437.651,206.155 460.67,219.352C474.224,227.123 482.469,237.039 499.166,238.9C540.069,243.46 575.01,211.317 614.708,239.301C632.139,251.588 648.28,277.593 643.58,299.627C638.806,322.013 618.318,335.992 637.456,357.631C677.36,402.75 752.457,369.057 785.808,402.175C795.505,411.805 800.799,425.187 804.126,438.187C806.826,448.736 807.855,458.847 807.626,469.752C805.88,552.882 742.323,522.048 711.495,583.476C690.718,624.874 715.04,667.04 668.297,707.734C658.654,716.129 644.974,722.152 632.042,720.232C571.406,711.228 596.991,615.799 544.716,597.215C521.537,588.975 492.437,599.196 469.419,603.825C400.513,617.681 304.643,646.524 257.199,577.707C249.882,567.094 242.111,554.237 239.154,541.455C231.793,509.642 271.858,483.877 264.417,452.848C260.844,437.951 248.158,424.247 239.154,412.35C208.55,371.916 182.088,324.372 202.9,273.189C206.455,264.446 212.96,252.644 221.492,247.753C249.723,231.568 276.43,245.983 284.157,274.992C285.918,281.602 285.002,301.84 293.179,305.035C299.904,307.662 310.637,303.477 312.045,299.708Z" style="fill:none;stroke:black;stroke-width:23.26px;"/>
    </g>
    <g transform="matrix(1.20565,0,0,1.23521,-283.723,6.59611)">
        <path d="M610.542,337.293L642.809,317.934" style="fill:none;stroke:rgb(255,0,12);stroke-width:12.19px;"/>
        <path d="M680.094,338.01L642.809,317.934" style="fill:none;stroke:rgb(255,0,12);stroke-width:12.19px;"/>
        <path d="M680.094,338.01L678.66,376.013" style="fill:none;stroke:rgb(255,0,12);stroke-width:12.19px;"/>
        <path d="M643.549,395.16L678.66,376.013" style="fill:none;stroke:rgb(255,0,12);stroke-width:12.19px;"/>
        <path d="M609.774,377.539L643.549,395.16" style="fill:none;stroke:rgb(255,0,12);stroke-width:12.19px;"/>
        <path d="M610.655,336.421L609.774,377.539" style="fill:none;stroke:rgb(255,0,12);stroke-width:12.19px;"/>
        <path d="M715.21,324.38L678.131,337.963" style="fill:none;stroke:rgb(255,0,12);stroke-width:12.19px;"/>
        <path d="M736.136,354.208L715.21,324.38" style="fill:none;stroke:rgb(255,0,12);stroke-width:12.19px;"/>
        <path d="M716.311,388.258L736.136,357.421" style="fill:none;stroke:rgb(255,0,12);stroke-width:12.19px;"/>
        <path d="M678.498,374.675L716.311,388.258" style="fill:none;stroke:rgb(255,0,12);stroke-width:12.19px;"/>
        <g transform="matrix(0.643588,-0.765372,0.765372,0.643588,-44.2287,624.318)">
            <g transform="matrix(-0.735602,-0.677414,0.677414,-0.735602,651.526,992.439)">
                <path d="M464.237,491.981L484.483,513.32" style="fill:none;stroke:rgb(255,0,12);stroke-width:12.23px;"/>
            </g>
            <g transform="matrix(-0.735602,-0.677414,0.677414,-0.735602,651.526,992.439)">
                <path d="M482.825,512.073L482.766,542.132" style="fill:none;stroke:rgb(255,0,12);stroke-width:12.23px;"/>
            </g>
            <g transform="matrix(-0.735602,-0.677414,0.677414,-0.735602,651.526,992.439)">
                <path d="M483.385,511.696L514.258,513.885" style="fill:none;stroke:rgb(255,0,12);stroke-width:12.23px;"/>
            </g>
        </g>
    </g>
    <g transform="matrix(0.825868,-0.899906,0.878366,0.846121,-212.148,858.084)">
        <path d="M610.542,337.293L642.809,317.934" style="fill:none;stroke:rgb(255,0,0);stroke-width:12.34px;"/>
        <path d="M680.094,338.01L642.809,317.934" style="fill:none;stroke:rgb(255,0,0);stroke-width:12.34px;"/>
        <path d="M680.094,338.01L678.66,376.013" style="fill:none;stroke:rgb(255,0,0);stroke-width:12.34px;"/>
        <path d="M643.549,395.16L678.66,376.013" style="fill:none;stroke:rgb(255,0,0);stroke-width:12.34px;"/>
        <path d="M609.774,377.539L643.549,395.16" style="fill:none;stroke:rgb(255,0,0);stroke-width:12.34px;"/>
        <path d="M610.655,336.421L609.774,377.539" style="fill:none;stroke:rgb(255,0,0);stroke-width:12.34px;"/>
        <path d="M715.21,324.38L678.131,337.963" style="fill:none;stroke:rgb(255,0,0);stroke-width:12.34px;"/>
        <path d="M736.136,354.208L715.21,324.38" style="fill:none;stroke:rgb(255,0,0);stroke-width:12.34px;"/>
        <path d="M716.311,388.258L736.136,357.421" style="fill:none;stroke:rgb(255,0,0);stroke-width:12.34px;"/>
        <path d="M678.498,374.675L716.311,388.258" style="fill:none;stroke:rgb(255,0,0);stroke-width:12.34px;"/>
        <g transform="matrix(0.643588,-0.765372,0.765372,0.643588,-44.2287,624.318)">
            <g transform="matrix(-0.735602,-0.677414,0.677414,-0.735602,651.526,992.439)">
                <path d="M464.237,491.981L484.483,513.32" style="fill:none;stroke:rgb(255,0,0);stroke-width:12.34px;"/>
            </g>
            <g transform="matrix(-0.735602,-0.677414,0.677414,-0.735602,651.526,992.439)">
                <path d="M482.825,512.073L482.766,542.132" style="fill:none;stroke:rgb(255,0,0);stroke-width:12.34px;"/>
            </g>
            <g transform="matrix(-0.735602,-0.677414,0.677414,-0.735602,651.526,992.439)">
                <path d="M483.385,511.696L514.258,513.885" style="fill:none;stroke:rgb(255,0,0);stroke-width:12.34px;"/>
            </g>
        </g>
    </g>
    <g transform="matrix(0.977103,0.723617,-0.706296,1.00106,-231.685,-302.705)">
        <path d="M610.542,337.293L642.809,317.934" style="fill:none;stroke:rgb(238,238,238);stroke-width:12.05px;"/>
        <path d="M680.094,338.01L642.809,317.934" style="fill:none;stroke:rgb(238,238,238);stroke-width:12.05px;"/>
        <path d="M680.094,338.01L678.66,376.013" style="fill:none;stroke:rgb(238,238,238);stroke-width:12.05px;"/>
        <path d="M643.549,395.16L678.66,376.013" style="fill:none;stroke:rgb(238,238,238);stroke-width:12.05px;"/>
        <path d="M609.774,377.539L643.549,395.16" style="fill:none;stroke:rgb(238,238,238);stroke-width:12.05px;"/>
        <path d="M610.655,336.421L609.774,377.539" style="fill:none;stroke:rgb(238,238,238);stroke-width:12.05px;"/>
        <path d="M715.21,324.38L678.131,337.963" style="fill:none;stroke:rgb(238,238,238);stroke-width:12.05px;"/>
        <path d="M736.136,354.208L715.21,324.38" style="fill:none;stroke:rgb(238,238,238);stroke-width:12.05px;"/>
        <path d="M716.311,388.258L736.136,357.421" style="fill:none;stroke:rgb(238,238,238);stroke-width:12.05px;"/>
        <path d="M678.498,374.675L716.311,388.258" style="fill:none;stroke:rgb(238,238,238);stroke-width:12.05px;"/>
        <g transform="matrix(0.643588,-0.765372,0.765372,0.643588,-44.2287,624.318)">
            <g transform="matrix(-0.735602,-0.677414,0.677414,-0.735602,651.526,992.439)">
                <path d="M464.237,491.981L484.483,513.32" style="fill:none;stroke:rgb(238,238,238);stroke-width:12.07px;"/>
            </g>
            <g transform="matrix(-0.735602,-0.677414,0.677414,-0.735602,651.526,992.439)">
                <path d="M482.825,512.073L482.766,542.132" style="fill:none;stroke:rgb(238,238,238);stroke-width:12.07px;"/>
            </g>
            <g transform="matrix(-0.735602,-0.677414,0.677414,-0.735602,651.526,992.439)">
                <path d="M483.385,511.696L514.258,513.885" style="fill:none;stroke:rgb(238,238,238);stroke-width:12.07px;"/>
            </g>
        </g>
    </g>
    <g transform="matrix(-1.20439,0.0564512,-0.0551,-1.23392,1626.08,743.44)">
        <path d="M610.542,337.293L642.809,317.934" style="fill:none;stroke:rgb(238,238,238);stroke-width:12.21px;"/>
        <path d="M680.094,338.01L642.809,317.934" style="fill:none;stroke:rgb(238,238,238);stroke-width:12.21px;"/>
        <path d="M680.094,338.01L678.66,376.013" style="fill:none;stroke:rgb(238,238,238);stroke-width:12.21px;"/>
        <path d="M643.549,395.16L678.66,376.013" style="fill:none;stroke:rgb(238,238,238);stroke-width:12.21px;"/>
        <path d="M609.774,377.539L643.549,395.16" style="fill:none;stroke:rgb(238,238,238);stroke-width:12.21px;"/>
        <path d="M610.655,336.421L609.774,377.539" style="fill:none;stroke:rgb(238,238,238);stroke-width:12.21px;"/>
        <path d="M715.21,324.38L678.131,337.963" style="fill:none;stroke:rgb(238,238,238);stroke-width:12.21px;"/>
        <path d="M736.136,354.208L715.21,324.38" style="fill:none;stroke:rgb(238,238,238);stroke-width:12.21px;"/>
        <path d="M716.311,388.258L736.136,357.421" style="fill:none;stroke:rgb(238,238,238);stroke-width:12.21px;"/>
        <path d="M678.498,374.675L716.311,388.258" style="fill:none;stroke:rgb(238,238,238);stroke-width:12.21px;"/>
        <g transform="matrix(0.643588,-0.765372,0.765372,0.643588,-44.2287,624.318)">
            <g transform="matrix(-0.735602,-0.677414,0.677414,-0.735602,651.526,992.439)">
                <path d="M464.237,491.981L484.483,513.32" style="fill:none;stroke:rgb(238,238,238);stroke-width:12.24px;"/>
            </g>
            <g transform="matrix(-0.735602,-0.677414,0.677414,-0.735602,651.526,992.439)">
                <path d="M482.825,512.073L482.766,542.132" style="fill:none;stroke:rgb(238,238,238);stroke-width:12.24px;"/>
            </g>
            <g transform="matrix(-0.735602,-0.677414,0.677414,-0.735602,651.526,992.439)">
                <path d="M483.385,511.696L514.258,513.885" style="fill:none;stroke:rgb(238,238,238);stroke-width:12.24px;"/>
            </g>
        </g>
    </g>
    <g transform="matrix(-1.1768,0.268563,-0.262135,-1.20566,1328.21,1079.03)">
        <path d="M610.542,337.293L642.809,317.934" style="fill:none;stroke:rgb(238,238,238);stroke-width:12.26px;"/>
        <path d="M680.094,338.01L642.809,317.934" style="fill:none;stroke:rgb(238,238,238);stroke-width:12.26px;"/>
        <path d="M680.094,338.01L678.66,376.013" style="fill:none;stroke:rgb(238,238,238);stroke-width:12.26px;"/>
        <path d="M643.549,395.16L678.66,376.013" style="fill:none;stroke:rgb(238,238,238);stroke-width:12.26px;"/>
        <path d="M609.774,377.539L643.549,395.16" style="fill:none;stroke:rgb(238,238,238);stroke-width:12.26px;"/>
        <path d="M610.655,336.421L609.774,377.539" style="fill:none;stroke:rgb(238,238,238);stroke-width:12.26px;"/>
        <path d="M715.21,324.38L678.131,337.963" style="fill:none;stroke:rgb(238,238,238);stroke-width:12.26px;"/>
        <path d="M736.136,354.208L715.21,324.38" style="fill:none;stroke:rgb(238,238,238);stroke-width:12.26px;"/>
        <path d="M716.311,388.258L736.136,357.421" style="fill:none;stroke:rgb(238,238,238);stroke-width:12.26px;"/>
        <path d="M678.498,374.675L716.311,388.258" style="fill:none;stroke:rgb(238,238,238);stroke-width:12.26px;"/>
        <g transform="matrix(0.643588,-0.765372,0.765372,0.643588,-44.2287,624.318)">
            <g transform="matrix(-0.735602,-0.677414,0.677414,-0.735602,651.526,992.439)">
                <path d="M464.237,491.981L484.483,513.32" style="fill:none;stroke:rgb(238,238,238);stroke-width:12.29px;"/>
            </g>
            <g transform="matrix(-0.735602,-0.677414,0.677414,-0.735602,651.526,992.439)">
                <path d="M482.825,512.073L482.766,542.132" style="fill:none;stroke:rgb(238,238,238);stroke-width:12.29px;"/>
            </g>
            <g transform="matrix(-0.735602,-0.677414,0.677414,-0.735602,651.526,992.439)">
                <path d="M483.385,511.696L514.258,513.885" style="fill:none;stroke:rgb(238,238,238);stroke-width:12.29px;"/>
            </g>
        </g>
    </g>
</svg>
